<svg xmlns="http://www.w3.org/2000/svg" viewBox="0 0 100 100"><defs><style>.cls-1{fill:#1388ca;}.cls-2{fill:#fff;opacity:0.8;}</style></defs><g id="Layer_2" data-name="Layer 2"><g id="Layer_1-2" data-name="Layer 1"><circle class="cls-1" cx="50" cy="50" r="50"/><path class="cls-2" d="M60,99V67.07L81.64,88.71a49.22,49.22,0,0,0,7.07-7.07L60.13,53.06A27.49,27.49,0,0,0,51.42,0c-.48,0-1,0-1.42,0V45H30V25H20V45H.25C.09,46.64,0,48.31,0,50s.09,3.36.25,5H20V75H30V55H50v45A50.7,50.7,0,0,0,60,99Zm0-85.85a17.48,17.48,0,0,1,0,28.7Z"/></g></g></svg>