<svg xmlns="http://www.w3.org/2000/svg" viewBox="0 0 100 100">
<g style="fill: hsl(0,0%,90%);">
	<path d="M30,55v20H20V55H0.2c2.5,25.3,23.8,45,49.8,45V55H30z"/>
	<path d="M20,25h10v20h20V0C24.1,0,2.8,19.7,0.2,45H20V25z"/>
	<path d="M60,99c8.1-1.6,15.5-5.2,21.6-10.3L60,67.1V99z"/>
	<path d="M64.4,37.5c5.5-7.9,3.6-18.8-4.4-24.3v28.7C61.7,40.7,63.2,39.2,64.4,37.5z"/>
	<path d="M75.7,17.4c5.5,14.1-1.4,30.1-15.6,35.6l28.6,28.6C95.8,73,100,62,100,50c0-26.9-21.3-48.9-48-49.9
		C62.6,0.8,71.8,7.5,75.7,17.4z"/>
	<path d="M51.4,0c-0.5,0-1,0-1.4,0c0.7,0,1.4,0,2,0.1C51.8,0,51.6,0,51.4,0z"/>
</g>
</svg>
